# xmcd
#
# Track frame offsets:
#	150
#	20559
#	41870
#
# Disc length: 917 seconds
#
# Revision: 0
# Processed by: cddbd v1.5.1PL0 Copyright (c) Steve Scherf et al.
# Submitted via: dBpowerAMP V4.0
#
DISCID=21039303
DTITLE=Poor rich ones - Hunting high and low (single)
DYEAR=1900
DGENRE=Pop
TTITLE0=Hunting high and low
TTITLE1=Clean and new
TTITLE2=Kindly Country
EXTD=
EXTT0=
EXTT1=
EXTT2=
PLAYORDER=
